<svg xmlns="http://www.w3.org/2000/svg" viewBox="0 0 512 512"><defs>
  <radialGradient id="bg" cx="0.72" cy="0.22" r="0.95">
    <stop offset="0" stop-color="#1d3358"/>
    <stop offset="0.5" stop-color="#0b1528"/>
    <stop offset="1" stop-color="#03060d"/>
  </radialGradient>
  <radialGradient id="planet" cx="0.7" cy="0.28" r="0.95">
    <stop offset="0" stop-color="#fff0d2"/>
    <stop offset="0.2" stop-color="#f4bb74"/>
    <stop offset="0.48" stop-color="#a55d2a"/>
    <stop offset="0.76" stop-color="#34190c"/>
    <stop offset="1" stop-color="#0e0806"/>
  </radialGradient>
  <radialGradient id="rim" cx="0.5" cy="0.5" r="0.5">
    <stop offset="0.86" stop-color="#7fe0ff" stop-opacity="0"/>
    <stop offset="0.95" stop-color="#7fe0ff" stop-opacity="0.75"/>
    <stop offset="1" stop-color="#7fe0ff" stop-opacity="0"/>
  </radialGradient>
  <linearGradient id="rimMask" x1="0.15" y1="0.85" x2="0.85" y2="0.15">
    <stop offset="0.35" stop-color="#000"/>
    <stop offset="1" stop-color="#fff"/>
  </linearGradient>
  <mask id="lit"><rect x="96" y="120" width="320" height="320" fill="url(#rimMask)"/></mask>
  <linearGradient id="ring" x1="0" y1="0" x2="1" y2="0">
    <stop offset="0" stop-color="#7a4a22"/>
    <stop offset="0.55" stop-color="#ffd596"/>
    <stop offset="1" stop-color="#c07a34"/>
  </linearGradient>
  <radialGradient id="glow" cx="0.5" cy="0.5" r="0.5">
    <stop offset="0" stop-color="#fff6e0" stop-opacity="0.9"/>
    <stop offset="1" stop-color="#ffcf8a" stop-opacity="0"/>
  </radialGradient>
  <clipPath id="front"><rect x="-300" y="0" width="600" height="300"/></clipPath>
</defs><rect width="512" height="512" rx="112" fill="url(#bg)"/>
  <g fill="#cfe9ff">
    <circle cx="92" cy="118" r="3.5" opacity="0.8"/>
    <circle cx="150" cy="70" r="2.5" opacity="0.6"/>
    <circle cx="70" cy="220" r="2.5" opacity="0.5"/>
    <circle cx="438" cy="420" r="3" opacity="0.6"/>
    <circle cx="112" cy="440" r="2" opacity="0.45"/>
    <circle cx="300" cy="64" r="2" opacity="0.5"/>
  </g>
  
  <g transform="translate(256 286) rotate(-16)">
    <g opacity="0.85">
      <ellipse rx="222" ry="60" fill="none" stroke="url(#ring)" stroke-width="20"/>
      <ellipse rx="190" ry="49" fill="none" stroke="url(#ring)" stroke-width="10" opacity="0.8"/>
    </g>
  </g>
  <circle cx="256" cy="286" r="132" fill="url(#planet)"/>
  <circle cx="256" cy="286" r="144" fill="url(#rim)" mask="url(#lit)"/>
  
  <g transform="translate(256 286) rotate(-16)">
    <g clip-path="url(#front)">
      <ellipse rx="222" ry="60" fill="none" stroke="url(#ring)" stroke-width="20"/>
      <ellipse rx="190" ry="49" fill="none" stroke="url(#ring)" stroke-width="10" opacity="0.8"/>
    </g>
  </g>
  <circle cx="396" cy="118" r="38" fill="url(#glow)"/>
  <path d="M396 84 L402.5 111.5 L430 118 L402.5 124.5 L396 152 L389.5 124.5 L362 118 L389.5 111.5 Z" fill="#fff8ea"/>
</svg>